<?xml version="1.0" ?><svg viewBox="0 0 512 512" xmlns="http://www.w3.org/2000/svg"><defs><style>.cls-1{fill:#a5c7e9;}.cls-2{fill:#3f6db5;}</style></defs><g data-name="Layer 3" id="Layer_3"><path class="cls-1" d="M324.63,282a68.63,68.63,0,0,0-137.26,0Z"/></g><g id="Outline"><path class="cls-2" d="M254.91,182.13A7.09,7.09,0,0,0,262,175V152.68a7.09,7.09,0,1,0-14.17,0V175A7.09,7.09,0,0,0,254.91,182.13Z"/><path class="cls-2" d="M329.9,213.19a7,7,0,0,0,5-2.08l31.89-31.89a7.09,7.09,0,0,0-10-10l-31.89,31.89a7.09,7.09,0,0,0,5,12.1Z"/><path class="cls-2" d="M174.92,211.11a7.09,7.09,0,1,0,10-10L153.05,169.2a7.09,7.09,0,0,0-10,10Z"/><path class="cls-2" d="M458.72,280H331.66a75,75,0,0,0-6.25-28.26,7.09,7.09,0,0,0-13,5.68A60.84,60.84,0,0,1,317.49,280h-123a61.54,61.54,0,0,1,105-41.48,7.09,7.09,0,0,0,10-10A75.69,75.69,0,0,0,180.34,280H53.28a7.09,7.09,0,1,0,0,14.17H458.72a7.09,7.09,0,1,0,0-14.17Z"/><path class="cls-2" d="M369.3,316.56l-48.79.43a7.09,7.09,0,0,0,.07,14.18h.06l48.78-.44a7.09,7.09,0,1,0-.12-14.17Z"/><path class="cls-2" d="M187.39,331l80.44-.26a7.09,7.09,0,0,0,0-14.17h0l-80.43.26a7.09,7.09,0,0,0,0,14.17Z"/><path class="cls-2" d="M150,316.94h0l-17.26.05a7.09,7.09,0,0,0,0,14.18h0l17.26-.06a7.09,7.09,0,0,0,0-14.17Z"/><path class="cls-2" d="M325.38,354l-135.11-.44h0a7.09,7.09,0,0,0,0,14.18l135.11.44h0a7.09,7.09,0,0,0,0-14.18Z"/></g></svg>